Coordinates
version=1
nRows=17
nColumns=40
inDegrees=yes

Units are S.I. units (second, meters, Newtons, ...)
If the header above contains a line with 'inDegrees', this indicates whether rotational values are in degrees (yes) or radians (no).

endheader
time	pelvis_tilt	pelvis_list	pelvis_rotation	pelvis_tx	pelvis_ty	pelvis_tz	hip_flexion_r	hip_adduction_r	hip_rotation_r	knee_angle_r	knee_angle_r_beta	ankle_angle_r	subtalar_angle_r	mtp_angle_r	hip_flexion_l	hip_adduction_l	hip_rotation_l	knee_angle_l	knee_angle_l_beta	ankle_angle_l	subtalar_angle_l	mtp_angle_l	lumbar_extension	lumbar_bending	lumbar_rotation	arm_flex_r	arm_add_r	arm_rot_r	elbow_flex_r	pro_sup_r	wrist_flex_r	wrist_dev_r	arm_flex_l	arm_add_l	arm_rot_l	elbow_flex_l	pro_sup_l	wrist_flex_l	wrist_dev_l
      2.87500000	     -7.72652884	     -9.86878462	      1.81972381	     -0.34605755	      0.72138970	     -0.97577401	     63.33602294	      1.44409558	     -7.61546727	      9.10124927	      0.15884677	    -19.56317364	      0.00000000	      0.00000000	     66.15882688	     -7.14252719	      3.20798321	     94.33549130	      1.64646492	     25.09457759	      0.00000000	      0.00000000	    -16.46052296	      2.65139146	      5.81553530	     89.92441706	    -11.13405277	     15.73055274	     32.51772619	     76.21245661	      0.00000000	      0.00000000	     89.95141539	    -25.28728240	     18.08456700	     46.79619760	     80.62374472	      0.00000000	      0.00000000
      2.88000000	     -7.73575451	     -9.74855977	      1.79903274	     -0.34580006	      0.72148534	     -0.97576784	     63.32665323	      1.40825157	     -7.47131035	      9.17378572	      0.16011277	    -19.26043792	      0.00000000	      0.00000000	     66.10363882	     -7.12243561	      3.05174481	     94.30366993	      1.64590954	     25.03697087	      0.00000000	      0.00000000	    -16.45835812	      2.49966929	      5.83822885	     89.92409270	    -11.21092236	     15.38714726	     32.46324301	     78.90813574	      0.00000000	      0.00000000	     89.95141346	    -25.21226214	     17.83472067	     46.74669370	     82.86566432	      0.00000000	      0.00000000
      2.88500000	     -7.70597594	     -9.70800391	      1.82410773	     -0.34548776	      0.72157146	     -0.97579053	     63.26219922	      1.37086885	     -7.48405108	      9.18503196	      0.16030905	    -19.22494256	      0.00000000	      0.00000000	     66.01436538	     -7.11745711	      2.99499529	     94.26438694	      1.64522392	     24.97987188	      0.00000000	      0.00000000	    -16.49339140	      2.45871133	      5.78676201	     89.92411651	    -11.15725692	     15.24791923	     32.45607580	     79.43594691	      0.00000000	      0.00000000	     89.95140483	    -25.25862963	     17.85893315	     46.75932059	     82.64996862	      0.00000000	      0.00000000
      2.89000000	     -7.83104866	     -9.72685048	      1.80671871	     -0.34536081	      0.72124213	     -0.97561012	     63.65457866	      1.33030686	     -7.69176023	      9.84721212	      0.17186627	    -18.70339035	      0.00000000	      0.00000000	     66.16922021	     -7.16319403	      2.97458992	     94.29818449	      1.64581380	     25.07517325	      0.00000000	      0.00000000	    -16.31925649	      2.46638825	      5.77656314	     89.92395355	    -10.89060884	     14.90765890	     32.18138170	     76.26693298	      0.00000000	      0.00000000	     89.95163079	    -25.15091899	     18.10181060	     46.60616418	     78.85656185	      0.00000000	      0.00000000
      2.89500000	     -7.76824513	     -9.76461029	      1.87055988	     -0.34520894	      0.72147012	     -0.97564582	     63.26986841	      1.37515365	     -7.37312522	      9.21740336	      0.16087404	    -19.22276370	      0.00000000	      0.00000000	     66.09884062	     -7.16328995	      3.01483810	     94.29484642	      1.64575554	     25.11568872	      0.00000000	      0.00000000	    -16.43454461	      2.51647319	      5.70681950	     89.92416200	    -11.13612108	     15.41869069	     32.47968171	     78.77776907	      0.00000000	      0.00000000	     89.95139613	    -25.31609682	     17.80209541	     46.79872488	     82.88618166	      0.00000000	      0.00000000
      2.90000000	     -7.80632793	     -9.79717237	      1.92485222	     -0.34507299	      0.72138521	     -0.97569093	     63.29914550	      1.34714905	     -7.41363834	      9.26374669	      0.16168288	    -19.28003435	      0.00000000	      0.00000000	     66.14949500	     -7.13632396	      3.05539803	     94.28412707	      1.64556845	     25.09987644	      0.00000000	      0.00000000	    -16.38933930	      2.55858167	      5.62756890	     89.92424918	    -11.07925725	     15.33107701	     32.47221113	     78.71031223	      0.00000000	      0.00000000	     89.95134803	    -25.36047357	     17.81864178	     46.81878278	     82.99208824	      0.00000000	      0.00000000
      2.90500000	     -7.84351791	     -9.83119169	      1.95133266	     -0.34498152	      0.72132125	     -0.97560238	     63.30823833	      1.34996718	     -7.37233067	      9.28319645	      0.16202234	    -19.24307691	      0.00000000	      0.00000000	     66.20413292	     -7.15390050	      3.08854798	     94.32798227	      1.64633387	     25.09586847	      0.00000000	      0.00000000	    -16.35586816	      2.58615537	      5.61068994	     89.92439587	    -11.09941002	     15.39924058	     32.50935323	     78.60953008	      0.00000000	      0.00000000	     89.95145022	    -25.35275375	     17.82794812	     46.83267517	     82.92298216	      0.00000000	      0.00000000
      2.91000000	     -7.77301828	     -9.87747044	      2.00668098	     -0.34484377	      0.72145597	     -0.97550433	     63.18459669	      1.36026046	     -7.48122965	      9.26309583	      0.16167152	    -19.25095474	      0.00000000	      0.00000000	     66.12410945	     -7.18191883	      3.12209382	     94.31631279	      1.64613020	     25.17604339	      0.00000000	      0.00000000	    -16.44621195	      2.65460108	      5.48786212	     89.92436205	    -10.84032057	     16.18313319	     32.77502513	     69.18773799	      0.00000000	      0.00000000	     89.95130270	    -25.51798991	     18.86002946	     47.16093672	     72.08575159	      0.00000000	      0.00000000
      2.91500000	     -7.81697233	     -9.82011762	      1.96048812	     -0.34475313	      0.72141983	     -0.97541332	     63.17609595	      1.37422816	     -7.25546375	      9.20993897	      0.16074376	    -19.39947937	      0.00000000	      0.00000000	     66.13856077	     -7.20000923	      3.03978240	     94.31050375	      1.64602881	     25.22031991	      0.00000000	      0.00000000	    -16.40266090	      2.56167419	      5.59368263	     89.92413452	    -11.02506464	     16.75560768	     32.90203651	     66.60047988	      0.00000000	      0.00000000	     89.95138414	    -25.38525694	     19.05575098	     47.25260612	     69.18138224	      0.00000000	      0.00000000
      2.92000000	     -7.88610294	     -9.85045703	      2.07069554	     -0.34460409	      0.72140575	     -0.97557916	     63.28007535	      1.27807640	     -7.32367566	      9.40099828	      0.16407837	    -19.30885756	      0.00000000	      0.00000000	     66.22179797	     -7.11352408	      3.10017181	     94.28862501	      1.64564695	     25.14647073	      0.00000000	      0.00000000	    -16.32711485	      2.60858735	      5.50712687	     89.92472636	    -11.12592146	     15.38336668	     32.62721883	     78.40888419	      0.00000000	      0.00000000	     89.95150689	    -25.32580397	     17.70466813	     46.88108232	     83.02160738	      0.00000000	      0.00000000
      2.92500000	     -7.93901745	     -9.86857740	      2.09236761	     -0.34451393	      0.72137000	     -0.97554575	     63.30578203	      1.28359489	     -7.24914922	      9.41192403	      0.16426906	    -19.31266529	      0.00000000	      0.00000000	     66.27135384	     -7.11257584	      3.11092103	     94.28204713	      1.64553215	     25.17693946	      0.00000000	      0.00000000	    -16.28011379	      2.62322018	      5.45806031	     89.92497342	    -11.10367803	     15.33679395	     32.62298323	     78.76101720	      0.00000000	      0.00000000	     89.95148740	    -25.33156964	     17.68470663	     46.91543976	     82.66797488	      0.00000000	      0.00000000
      2.93000000	     -7.94746306	     -9.88672989	      2.11191976	     -0.34440210	      0.72140676	     -0.97550042	     63.30981100	      1.29125273	     -7.28058415	      9.47368058	      0.16534692	    -19.34890644	      0.00000000	      0.00000000	     66.27889201	     -7.11856987	      3.12971918	     94.27591300	      1.64542509	     25.15349964	      0.00000000	      0.00000000	    -16.28563325	      2.63845178	      5.45207823	     89.92501971	    -11.11002358	     15.24108759	     32.68659983	     79.19255070	      0.00000000	      0.00000000	     89.95165292	    -25.33114407	     17.64728332	     46.93815146	     82.74306353	      0.00000000	      0.00000000
      2.93500000	     -7.94646413	     -9.88980461	      2.10316622	     -0.34428744	      0.72148362	     -0.97541882	     63.29226187	      1.31471812	     -7.21582641	      9.51176065	      0.16601154	    -19.49965282	      0.00000000	      0.00000000	     66.26986334	     -7.16521351	      3.09412263	     94.29295977	      1.64572261	     25.14888457	      0.00000000	      0.00000000	    -16.29369265	      2.63958297	      5.46833498	     89.92491666	    -11.11657930	     15.22227659	     32.69706616	     79.17317564	      0.00000000	      0.00000000	     89.95174462	    -25.31747528	     17.57338954	     46.94054219	     82.60913445	      0.00000000	      0.00000000
      2.94000000	     -7.94147226	     -9.84903823	      2.12727419	     -0.34420741	      0.72163722	     -0.97547855	     63.25626180	      1.27445767	     -7.25884342	      9.52626052	      0.16626461	    -19.55897997	      0.00000000	      0.00000000	     66.21803974	     -7.10094340	      3.08835908	     94.23631174	      1.64473391	     25.17168888	      0.00000000	      0.00000000	    -16.31780774	      2.60302919	      5.45665994	     89.92517322	    -11.14180461	     15.24764202	     32.75281190	     78.91723389	      0.00000000	      0.00000000	     89.95181750	    -25.33449491	     17.60824589	     46.98611408	     82.81250845	      0.00000000	      0.00000000
      2.94500000	     -7.93851614	     -9.93817631	      2.17001059	     -0.34413836	      0.72163722	     -0.97536147	     63.21765994	      1.31298782	     -7.42797144	      9.47513296	      0.16537227	    -19.74524281	      0.00000000	      0.00000000	     66.23766663	     -7.11874322	      3.20017310	     94.24763089	      1.64493147	     25.26703734	      0.00000000	      0.00000000	    -16.34182003	      2.71109171	      5.36140008	     89.92512366	    -10.95294581	     16.17692539	     33.00148843	     69.43925560	      0.00000000	      0.00000000	     89.95168671	    -25.48463651	     18.61084389	     47.33244646	     72.04097907	      0.00000000	      0.00000000
      2.95000000	     -8.02697578	     -9.90207085	      2.12151711	     -0.34399157	      0.72160464	     -0.97529362	     63.30280789	      1.32796795	     -7.30855444	      9.56054215	      0.16686294	    -19.65892640	      0.00000000	      0.00000000	     66.30442138	     -7.13508940	      3.14319650	     94.24684612	      1.64491777	     25.17792420	      0.00000000	      0.00000000	    -16.23980777	      2.63709913	      5.50310628	     89.92543246	    -11.23683635	     15.30264101	     32.81228156	     78.95406702	      0.00000000	      0.00000000	     89.95196750	    -25.28832385	     17.54785920	     47.03365340	     82.73129030	      0.00000000	      0.00000000
      2.95500000	     -7.99852238	     -9.92232246	      2.12943317	     -0.34388525	      0.72168546	     -0.97520981	     63.21921706	      1.36177549	     -7.35824154	      9.49101468	      0.16564946	    -19.73116975	      0.00000000	      0.00000000	     66.26699288	     -7.14543161	      3.18661157	     94.23838311	      1.64477007	     25.23901030	      0.00000000	      0.00000000	    -16.28387307	      2.67661156	      5.41961199	     89.92531330	    -11.08636704	     15.91003349	     32.86334689	     73.21364245	      0.00000000	      0.00000000	     89.95190219	    -25.45120621	     18.20526396	     47.24769861	     76.20220169	      0.00000000	      0.00000000
